<?xml version="1.0" encoding="utf-8"?>
<!-- Generator: Adobe Illustrator 20.0.0, SVG Export Plug-In . SVG Version: 6.00 Build 0)  -->
<svg version="1.1" id="Layer_1" xmlns="http://www.w3.org/2000/svg" xmlns:xlink="http://www.w3.org/1999/xlink" x="0px" y="0px"
	 viewBox="0 0 351.6 95.3" style="enable-background:new 0 0 351.6 95.3;" xml:space="preserve">
<style type="text/css">
	.st0{fill:#FFF;}
</style>
<g>
	<path class="st0" d="M9,54.8V0H0v54.8c0,13,10.6,23.6,23.6,23.6h14.8v-9H23.6C15.5,69.4,9,62.9,9,54.8z"/>
	<path class="st0" d="M228.9,30.3c3.4-3.2,5.5-7.7,5.5-12.7c0-9.7-7.9-17.5-17.5-17.5h-10.3v0.3h-3.1v78.3h10.2v-0.1h10.9
		c13.4,0,24.3-10.9,24.3-24.3C248.8,42.3,240.2,32.3,228.9,30.3z M225.2,17.5c0,4.6-3.8,8.4-8.4,8.4h-3.2V9.1h3.2
		C221.5,9.1,225.2,12.9,225.2,17.5z M224.5,70.1h-10.9V38.2h10.9c8.8,0,15.9,7.2,15.9,15.9C240.4,62.9,233.3,70.1,224.5,70.1z"/>
	<path class="st0" d="M127.4,70.1c-8.8,0-15.9-7.1-15.9-15.9s7.1-15.9,15.9-15.9c2.7,0,5.4,0.7,7.7,2l4-7.3c-3.6-2-7.7-3-11.8-3
		c-13.4,0-24.3,10.9-24.3,24.3s10.9,24.3,24.3,24.3c4.6,0,9.1-1.3,12.9-3.7l-4.5-7.1C133.3,69.3,130.4,70.1,127.4,70.1z"/>
	<path class="st0" d="M349.7,68.9c-2.7,0.6-6.3,0.9-8.4-0.8c-2.1-1.7-2.5-5.3-2.4-6.5l0-31.8h8.4v-9h-8.4l0-20.8h-9v20.8h-8.9v9h8.9
		v31.4c0,1.4,0,8.9,5.6,13.7c2.7,2.3,6.1,3.4,10.2,3.4c1.9,0,3.9-0.2,6-0.7L349.7,68.9z"/>
	<path class="st0" d="M91.8,68.3c-2.1-1.7-2.5-5.3-2.4-6.5l0-0.1l-0.1-31.8l-4.5,0h-4.5V55c0,8-6.5,14.6-14.6,14.6
		S51.1,63.1,51.1,55V29.9h-9v25.3h0c0.1,12.9,10.6,23.4,23.6,23.4c6.7,0,12.8-2.8,17.1-7.3c0.8,1.4,1.8,2.7,3.2,3.9
		c2.7,2.3,6.1,3.4,10.2,3.4c1.9,0,3.9-0.2,6-0.7l-2-8.8C97.6,69.7,94,70.1,91.8,68.3z"/>
	<path class="st0" d="M183.8,29.8l-0.1,26.4c-0.6,7.5-6.9,13.3-14.5,13.3c-8,0-14.6-6.5-14.6-14.6V29.8h-9v25.3h0
		c0.1,12.9,10.6,23.4,23.6,23.4c5.5,0,10.5-1.9,14.5-5l0,4.7l0,0.2c0,0,0.1,4.4-2.4,6.5c-2.1,1.8-5.8,1.4-8.4,0.8l-2,8.8
		c2.1,0.5,4.1,0.7,6,0.7c4.1,0,7.5-1.1,10.2-3.4c5.6-4.7,5.6-12.3,5.6-13.7l0.1-21.6c0-0.5,0.1-1.1,0.1-1.7h-0.1l0.1-25.1
		L183.8,29.8z"/>
	<path class="st0" d="M308.7,21.1h-48.1c-2.5,0-4.6,2.1-4.6,4.6v48.1c0,2.5,2.1,4.6,4.6,4.6h48.1c2.5,0,4.6-2.1,4.6-4.6V25.7
		C313.3,23.1,311.2,21.1,308.7,21.1z M282.9,38c-2.5,0-6.9,0.7-6.9,2.4v4.5c0,2.6-0.8,3.9-3.1,4.4c2.3,0.6,3.1,1.8,3.1,4.4v4.4
		c0,1.7,4.4,2.4,6.9,2.4v4.7h-6.2c-4.8,0-6.4-1.4-6.4-5.1v-6.8c0-1.2-0.4-1.6-1.4-1.6h-1.4v-4.8h1.4c1,0,1.4-0.4,1.4-1.6v-6.8
		c0-3.8,1.7-5.1,6.4-5.1h6.2V38z M301.9,51.7h-1.4c-1,0-1.4,0.4-1.4,1.6v6.8c0,3.8-1.7,5.1-6.4,5.1h-6.2v-4.7c2.5,0,6.9-0.7,6.9-2.4
		v-4.5c0-2.6,0.8-3.9,3.1-4.4c-2.3-0.6-3.1-1.8-3.1-4.4v-4.4c0-1.7-4.4-2.4-6.9-2.4v-4.7h6.2c4.8,0,6.4,1.4,6.4,5.1v6.8
		c0,1.2,0.4,1.6,1.4,1.6h1.4V51.7z"/>
</g>
</svg>
